# OBJ file
v 1.0000 0.0000 0.2500
v 1.0000 0.0000 -0.2500
v 0.7071 0.7071 0.2500
v 0.7071 0.7071 -0.2500
v 0.0000 1.0000 0.2500
v 0.0000 1.0000 -0.2500
v -0.7071 0.7071 0.2500
v -0.7071 0.7071 -0.2500
v -1.0000 0.0000 0.2500
v -1.0000 0.0000 -0.2500
v -0.7071 -0.7071 0.2500
v -0.7071 -0.7071 -0.2500
v -0.0000 -1.0000 0.2500
v -0.0000 -1.0000 -0.2500
v 0.7071 -0.7071 0.2500
v 0.7071 -0.7071 -0.2500
v 0.0000 0.0000 0.2500
v 0.0000 0.0000 -0.2500
vn 0.3536 0.1464 0.0000
vn 0.1464 0.3536 0.0000
vn -0.1464 0.3536 0.0000
vn -0.3536 0.1464 0.0000
vn -0.3536 -0.1464 0.0000
vn -0.1464 -0.3536 0.0000
vn 0.1464 -0.3536 0.0000
vn 0.3536 -0.1464 0.0000
vn 0.0000 0.0000 1.0000
vn 0.0000 0.0000 -1.0000
f 4//1 3//1 1//1
f 2//1 4//1 1//1
f 17//9 1//9 3//9
f 18//10 4//10 2//10
f 6//2 5//2 3//2
f 4//2 6//2 3//2
f 17//9 3//9 5//9
f 18//10 6//10 4//10
f 8//3 7//3 5//3
f 6//3 8//3 5//3
f 17//9 5//9 7//9
f 18//10 8//10 6//10
f 10//4 9//4 7//4
f 8//4 10//4 7//4
f 17//9 7//9 9//9
f 18//10 10//10 8//10
f 12//5 11//5 9//5
f 10//5 12//5 9//5
f 17//9 9//9 11//9
f 18//10 12//10 10//10
f 14//6 13//6 11//6
f 12//6 14//6 11//6
f 17//9 11//9 13//9
f 18//10 14//10 12//10
f 16//7 15//7 13//7
f 14//7 16//7 13//7
f 17//9 13//9 15//9
f 18//10 16//10 14//10
f 2//8 1//8 15//8
f 16//8 2//8 15//8
f 17//9 15//9 1//9
f 18//10 2//10 16//10
c 1 1 1 1
c 1 1 1 1
c 1 1 1 1
c 1 1 1 1
c 1 1 1 1
c 1 1 1 1
c 1 1 1 1
c 1 1 1 1
c 1 1 1 1
c 1 1 1 1
c 1 1 1 1
c 1 1 1 1
c 1 1 1 1
c 1 1 1 1
c 1 1 1 1
c 1 1 1 1
c 1 1 1 1
c 1 1 1 1
c 1 1 1 1
c 1 1 1 1
c 1 1 1 1
c 1 1 1 1
c 1 1 1 1
c 1 1 1 1
c 1 1 1 1
c 1 1 1 1
c 1 1 1 1
c 1 1 1 1
c 1 1 1 1
c 1 1 1 1
c 1 1 1 1
c 1 1 1 1
